<?xml version="1.0" encoding="utf-8"?>
<!-- Generator: Adobe Illustrator 23.0.3, SVG Export Plug-In . SVG Version: 6.00 Build 0)  -->
<svg version="1.1" id="Capa_1" xmlns="http://www.w3.org/2000/svg" xmlns:xlink="http://www.w3.org/1999/xlink" x="0px" y="0px"
	 viewBox="0 0 496 496" style="enable-background:new 0 0 496 496;" xml:space="preserve">
<style type="text/css">
	.st0{fill:#28AAE2;}
	.st1{fill:#81B5A1;}
</style>
<path class="st0" d="M57,263c-1.2-1.2-2.7-1.8-4.3-1.8s-3.1,0.6-4.3,1.8l-29.7,29.7C8,303.4,1.9,317.9,2.1,332.4
	c0.1,14.3,5.8,27.8,16,38l107.5,107.5c10.6,10.6,24.8,16.6,39.2,16.6c0.1,0,0.2,0,0.3,0c14.4-0.1,27.9-5.7,38-15.7l31.6-29
	c1.6-1.5,2.6-3.6,2.6-5.8s-0.8-4.3-2.4-5.9l-7.6-7.6h173.2l-17.9-53.6c-6.3-18.9-22.4-32.8-42-36.4l-54.7-10v-6.3l0.7-0.4
	c9.1-5.3,17-12.3,23.4-20.8l0.4-0.6h16.9c12.4,0,22.5-10.1,22.5-22.5V185c0-56.8-45.7-103.3-101.9-103.6
	c-27.5-0.1-53.3,10.4-72.8,29.8s-30.3,45.2-30.3,72.7v56c0,14.4,10.2,27,24.3,29.9l1,0.2l0.2,1c4.3,22.2,18.1,41.4,37.8,52.8
	l0.7,0.4v6.3l-54.7,10c-19.6,3.6-35.7,17.5-41.9,36.4l-4,11.9l-29-29c-3.7-3.7-3.7-9.7,0-13.4l26.1-26.1c1.2-1.2,1.8-2.8,1.8-4.4
	c0-1.7-0.7-3.3-1.8-4.4L57,263z M209.3,455.3l-38.9-38.9l12.8-11.6l38.8,38.8L209.3,455.3z M336.9,280c0,5.2-4.3,9.5-9.5,9.5h-9
	l0.9-2.1c2.3-5.2,4-10.7,5.1-16.3l0.2-1l1-0.2c3-0.6,6-1.8,9.1-3.6l2.3-1.3v15H336.9z M328.2,255.1l-2.3,1.3v-32.8l2.3,1.3
	c5.4,3.1,8.7,8.9,8.7,15.1C336.9,246.2,333.6,251.9,328.2,255.1z M168.9,256.4l-2.3-1.3c-5.4-3.1-8.7-8.9-8.7-15.1
	c0-6.2,3.4-11.9,8.7-15.1l2.3-1.3V256.4z M168.9,201.5v8.8l-1.1,0.3c-2.7,0.7-5.2,1.8-7.6,3.2l-2.3,1.3v-29.9
	c0-49.5,39.7-90.1,88.6-90.6c24.1-0.2,46.7,9,63.8,25.9c17.1,17,26.6,39.5,26.6,63.6v31.1l-2.3-1.3c-2.4-1.4-5-2.5-7.6-3.2l-1.1-0.3
	v-8.8h-6.5c-24.1,0-46.7-9.4-63.7-26.4l-8.3-8.3l-8.3,8.3c-17,17-39.6,26.4-63.7,26.4h-6.5V201.5z M200.1,301
	c-11.7-12.5-18.2-28.8-18.2-45.9v-40.8l1.4-0.1c23.9-1.8,45.7-11.5,63.1-28l1-1l1,1c17.4,16.5,39.2,26.2,63.1,28l1.4,0.1V256
	c0,11.4-3.1,22.8-8.9,32.8l-0.4,0.7h-48.3c-3.6,0-6.4,2.9-6.4,6.4v0.2c0,3.5,2.9,6.4,6.4,6.4h38.3l-3,2.6
	c-12.1,10.6-27.3,16.4-43.2,16.4c-0.9,0-1.7,0-2.6,0C227.8,320.8,211.9,313.5,200.1,301z M272.9,330.3v3l-25.5,25.5l-25.5-25.5v-3
	l1.9,0.6c15.3,4.8,31.8,4.8,47.1,0L272.9,330.3z M124.6,381c4.8-14.4,17-25,31.9-27.7l56.7-10.3l34.2,34.2l34.2-34.2l56.7,10.3
	c14.9,2.7,27.2,13.3,31.9,27.7l12.2,36.5H214.2l-25.1-25.1c-3.1-3.1-8-3.2-11.2-0.3l-27.8,25.2c-1.7,1.7-4.1,2.7-6.7,2.7l0,0
	c-2.6,0-5-1-6.7-2.7l-18.1-18.1L124.6,381z M127.5,426.4c4.3,4.2,9.9,6.6,15.9,6.6c5.9,0,11.6-2.3,15.6-6.3l1.7-1.5l39,39l-5.7,5.2
	c-7.8,7.8-18.3,12.1-29.3,12.1c-11.1,0-21.5-4.3-29.3-12.2L27.2,361.2c-8-8-12.3-18.7-12.1-30.1c0.2-10.8,4.7-21.2,12.7-29.2
	l4.9-4.9l38.8,38.8l-1.3,1.3c-8.8,8.8-8.8,23.1,0,31.8L127.5,426.4z M80.7,326.7l-38.8-38.8l10.8-10.8l38.8,38.8L80.7,326.7z"/>
<path class="st1" d="M493.9,88V24c0-12.4-10.1-22.5-22.5-22.5h-112c-12.4,0-22.5,10.1-22.5,22.5v64c0,12.4,10.1,22.5,22.5,22.5h23.1
	l-8,46.7l74.7-46.7h22.1C483.8,110.5,493.9,100.4,493.9,88z M445.6,97.5l-53.3,33.3l5.7-33.3h-38.6c-5.2,0-9.5-4.3-9.5-9.5V24
	c0-5.2,4.3-9.5,9.5-9.5h112c5.2,0,9.5,4.3,9.5,9.5v64c0,5.2-4.3,9.5-9.5,9.5H445.6z"/>
<path class="st0" d="M455.4,33.5h-80c-3.6,0-6.5,2.9-6.5,6.5s2.9,6.5,6.5,6.5h80c3.6,0,6.5-2.9,6.5-6.5S459,33.5,455.4,33.5z"/>
<path class="st0" d="M423.4,65.5h-48c-3.6,0-6.5,2.9-6.5,6.5s2.9,6.5,6.5,6.5h48c3.6,0,6.5-2.9,6.5-6.5S427,65.5,423.4,65.5z"/>
<circle class="st0" cx="455.4" cy="72" r="6.5"/>
<path class="st1" d="M309.9,41.7l0.1-0.3c0.5-1.7,0.3-3.5-0.5-5.1c-0.9-1.6-2.3-2.7-4.1-3.2c-18.8-5.1-38.3-7.6-57.9-7.6
	c-50,0-99.2,17.2-138.3,48.3c-39,31.1-66.8,74.8-78.1,123.3c-0.2,0.7-0.7,1.1-1.3,1.3c-0.7,0.1-1.3-0.2-1.7-0.8l-10.8-18
	c-0.9-1.5-2.4-2.6-4.1-3c-0.5-0.1-1.1-0.2-1.6-0.2c-1.2,0-2.3,0.3-3.4,0.9c-1.5,0.9-2.5,2.3-2.9,3.9c-0.4,1.7-0.2,3.4,0.7,4.8
	l20.4,34c1.6,2.6,5,3.5,7.6,1.9l34-20.3c3-1.8,4-5.7,2.2-8.7l-0.2-0.4c-1.8-2.9-5.6-3.9-8.5-2.1l-14.8,8.9c-0.6,0.3-1.3,0.3-1.8-0.1
	c-0.5-0.4-0.8-1.1-0.6-1.7c11.1-45,37.4-85.6,73.9-114.2c36.7-28.8,82.6-44.7,129.2-44.7c18.6,0,37.1,2.4,54.9,7.3
	C305.6,46.6,308.9,44.8,309.9,41.7z"/>
<path class="st1" d="M484.4,174.6l-35.6-21.4c-1-0.6-2.1-0.7-3.1-0.5c-1.1,0.3-2,0.9-2.6,1.9L422,189.9c-1.8,3-0.8,6.9,2.2,8.8
	c3.1,1.9,7.2,0.9,9.1-2.3l9.5-15.8c0.3-0.6,0.9-0.9,1.6-0.9c0.1,0,0.1,0,0.2,0c0.7,0.1,1.3,0.6,1.5,1.2c7.3,21.6,11,44.1,11,67
	c0,45-14.9,89.6-41.8,125.7c-2.2,2.9-1.7,6.9,1.1,9.2l0.3,0.2c1.3,1,2.9,1.5,4.5,1.3c1.7-0.2,3.1-1.1,4.1-2.4
	c28.9-38.3,44.8-85.9,44.8-134c0-23.8-3.8-47.4-11.3-69.9c-0.2-0.7,0-1.5,0.6-2s1.4-0.5,2.1-0.1l16.1,9.7c2.9,1.8,6.8,0.8,8.6-2.1
	l0.4-0.7C488.1,180,487.2,176.3,484.4,174.6z"/>
</svg>
